Input #0, mov,mp4,m4a,3gp,3g2,mj2, from '/home/hbattu/projects/huberman-gpt/huberman-audio/mp3/tmpegm7x66s.mp4':
  Metadata:
    major_brand     : dash
    minor_version   : 0
    compatible_brands: iso6mp41
    creation_time   : 2022-06-11T05:29:16.000000Z
  Duration: 02:24:28.91, start: 0.000000, bitrate: 129 kb/s
    Stream #0:0(eng): Audio: aac (LC) (mp4a / 0x6134706D), 44100 Hz, stereo, fltp, 0 kb/s (default)
    Metadata:
      creation_time   : 2022-06-11T05:29:16.000000Z
      handler_name    : ISO Media file produced by Google Inc.
Stream mapping:
  Stream #0:0 -> #0:0 (aac (native) -> mp3 (libmp3lame))
Press [q] to stop, [?] for help
[graph_0_in_0_0 @ 0x5561f12ba880] tb:1/44100 samplefmt:fltp samplerate:44100 chlayout:0x3
Output #0, mp3, to '../huberman-audio/mp3/IOl28gj_RXw.mp3':
  Metadata:
    major_brand     : dash
    minor_version   : 0
    compatible_brands: iso6mp41
    TSSE            : Lavf58.29.100
    Stream #0:0(eng): Audio: mp3 (libmp3lame), 44100 Hz, stereo, fltp, delay 1105 (default)
    Metadata:
      creation_time   : 2022-06-11T05:29:16.000000Z
      handler_name    : ISO Media file produced by Google Inc.
      encoder         : Lavc58.54.100 libmp3lame
No more output streams to write to, finishing.
size=  135453kB time=02:24:28.91 bitrate= 128.0kbits/s speed=  96x    
[AVIOContext @ 0x5561f11a7900] Statistics: 0 seeks, 181 writeouts
video:0kB audio:135452kB subtitle:0kB other streams:0kB global headers:0kB muxing overhead: 0.000249%
Input file #0 (/home/hbattu/projects/huberman-gpt/huberman-audio/mp3/tmpegm7x66s.mp4):
  Input stream #0:0 (audio): 373339 packets read (138702634 bytes); 373339 frames decoded (382299136 samples); 
  Total: 373339 packets (138702634 bytes) demuxed
Output file #0 (../huberman-audio/mp3/IOl28gj_RXw.mp3):
  Output stream #0:0 (audio): 331857 frames encoded (382299136 samples); 331858 packets muxed (138703098 bytes); 
  Total: 331858 packets (138703098 bytes) muxed
[AVIOContext @ 0x5561f11dac80] Statistics: 2 seeks, 531 writeouts
[AVIOContext @ 0x5561f11b0880] Statistics: 140297458 bytes read, 0 seeks
